<svg width="26" height="27" viewBox="0 0 26 27" fill="none" xmlns="http://www.w3.org/2000/svg">
<g clip-path="url(#clip0_26_2)">
<path fill-rule="evenodd" clip-rule="evenodd" d="M24.7131 1.42702C25.2988 2.20089 25.5627 3.48368 25.6926 5.04318C25.8645 7.37041 25.9335 10.1631 25.9995 13.0488C25.9141 15.9883 25.8793 18.9528 25.6926 21.0545C25.5453 22.6677 25.2323 23.748 24.7096 24.4032C24.0446 25.0573 22.769 25.6097 20.9502 25.7407C18.738 25.9294 16.0088 25.9274 12.9977 26.0015C9.65059 25.9442 7.38064 25.9688 4.9992 25.7417C3.1415 25.6128 1.92623 25.0671 1.17845 24.4083C0.624515 23.6646 0.462376 22.8738 0.308932 21.0202C0.117127 18.8797 0.0746747 15.9791 0.00204468 13.0647C0.11099 10.1656 0.117639 7.24356 0.310467 5.05955C0.439871 3.33637 0.643951 2.17788 1.16719 1.44135C1.90117 0.815808 3.15327 0.504829 5.02119 0.351385C7.57859 0.0521701 10.2413 -0.00664996 12.9941 -7.39332e-07C15.8272 0.00460257 18.5467 0.0854162 20.9732 0.324277C22.6099 0.455215 23.9643 0.73704 24.7106 1.42702H24.7131Z" fill="#A4A4A4"/>
<path d="M19.2873 6.3229L5.75976 11.54C4.83654 11.9103 4.84217 12.4254 5.59148 12.655L8.96724 13.7081L10.2582 17.666C10.4152 18.0992 10.338 18.271 10.7927 18.271C11.1436 18.271 11.2996 18.1109 11.495 17.9202C11.6193 17.7984 12.3573 17.0808 13.1828 16.2793L16.6921 18.8725C17.3381 19.2306 17.8041 19.0444 17.9652 18.2726L20.2668 7.41695C20.5016 6.47174 19.9052 6.04466 19.2873 6.3229ZM9.49458 13.4667L17.0992 8.66905C17.4788 8.43889 17.8271 8.56267 17.5412 8.81636L11.03 14.6912L10.7743 17.3954L9.49458 13.4667Z" fill="white"/>
</g>
<defs>
<clipPath id="clip0_26_2">
<rect width="26" height="26.0015" fill="white"/>
</clipPath>
</defs>
</svg>
