<svg width="26" height="26" viewBox="0 0 26 26" fill="none" xmlns="http://www.w3.org/2000/svg">
<path d="M0 12.0615C0 6.37685 0 3.53454 1.76202 1.76202C3.53454 0 6.37685 0 12.0615 0H13.1103C18.7949 0 21.6372 0 23.4097 1.76202C25.1718 3.53454 25.1718 6.37685 25.1718 12.0615V13.1103C25.1718 18.7949 25.1718 21.6372 23.4097 23.4097C21.6372 25.1718 18.7949 25.1718 13.1103 25.1718H12.0615C6.37685 25.1718 3.53454 25.1718 1.76202 23.4097C0 21.6372 0 18.7949 0 13.1103V12.0615Z" fill="#A4A4A4"/>
<path fill-rule="evenodd" clip-rule="evenodd" d="M6.81727 7.86666H4.98183C4.45742 7.86666 4.35254 8.11837 4.35254 8.39107C4.35254 8.87353 4.98183 11.2858 7.24729 14.4742C8.76809 16.6453 10.9077 17.8305 12.848 17.8305C14.0122 17.8305 14.159 17.5683 14.159 17.1173V15.4706C14.159 14.9462 14.2639 14.8413 14.6415 14.8413C14.9142 14.8413 15.3757 14.9777 16.4664 16.0265C17.7145 17.2746 17.9138 17.8305 18.6165 17.8305H20.452C20.9764 17.8305 21.2386 17.5683 21.0813 17.0543C20.9239 16.5299 20.3261 15.7958 19.5395 14.9043C19.12 14.3903 18.4697 13.8554 18.2809 13.5827C18.0082 13.2261 18.0711 13.0688 18.2809 12.7647C18.2809 12.7647 20.5149 9.61819 20.7456 8.5379C20.861 8.14984 20.7456 7.86666 20.1898 7.86666H18.3543C18.1827 7.85639 18.0123 7.90191 17.8686 7.99642C17.725 8.09094 17.6157 8.22937 17.5572 8.39107C17.5572 8.39107 16.6133 10.6565 15.3023 12.1354C14.8722 12.5654 14.673 12.7017 14.4422 12.7017C14.3373 12.7017 14.159 12.5654 14.159 12.1773V8.5379C14.159 8.07642 14.0227 7.86666 13.6346 7.86666H10.7504C10.4567 7.86666 10.2784 8.07642 10.2784 8.28619C10.2784 8.72669 10.9496 8.83157 11.0126 10.0692V12.7752C11.0126 13.373 10.9077 13.4779 10.6769 13.4779C10.0477 13.4779 8.53734 11.1914 7.63536 8.57986C7.46754 8.07642 7.28924 7.86666 6.81727 7.86666V7.86666Z" fill="white"/>
</svg>
