<svg width="26" height="26" viewBox="0 0 26 26" fill="none" xmlns="http://www.w3.org/2000/svg">
<path fill-rule="evenodd" clip-rule="evenodd" d="M0.762292 2.82671C0.171875 3.96331 0.171875 5.45655 0.171875 8.44303V16.7287C0.171875 19.7152 0.171875 21.2084 0.762292 22.345C1.25983 23.3029 2.04079 24.0838 2.99859 24.5813C4.13519 25.1718 5.62843 25.1718 8.6149 25.1718H16.9006C19.8871 25.1718 21.3803 25.1718 22.5169 24.5813C23.4747 24.0838 24.2557 23.3029 24.7532 22.345C25.3436 21.2084 25.3436 19.7152 25.3436 16.7287V8.44303C25.3436 5.45655 25.3436 3.96331 24.7532 2.82671C24.2557 1.86891 23.4747 1.08796 22.5169 0.590417C21.3803 0 19.8871 0 16.9006 0H8.6149C5.62843 0 4.13519 0 2.99859 0.590417C2.04079 1.08796 1.25983 1.86891 0.762292 2.82671ZM21.8083 7.83669C21.5906 7.02805 20.953 6.39046 20.1444 6.17275C18.667 5.76843 12.7577 5.76843 12.7577 5.76843C12.7577 5.76843 6.84839 5.76843 5.37106 6.1572C4.57796 6.37491 3.92483 7.02805 3.70712 7.83669C3.31835 9.31402 3.31835 12.3775 3.31835 12.3775C3.31835 12.3775 3.31835 15.4566 3.70712 16.9184C3.92483 17.727 4.56241 18.3646 5.37106 18.5823C6.86394 18.9867 12.7577 18.9867 12.7577 18.9867C12.7577 18.9867 18.667 18.9867 20.1444 18.5979C20.953 18.3802 21.5906 17.7426 21.8083 16.9339C22.1971 15.4566 22.1971 12.3931 22.1971 12.3931C22.1971 12.3931 22.2126 9.31402 21.8083 7.83669ZM10.876 15.0998L15.7901 12.2696L10.876 9.43931V15.0998Z" fill="#A4A4A4"/>
</svg>
